<?xml version="1.0" encoding="utf-8" ?>
<!--Generator: Assembly 2.2 - http://assemblyapp.co-->
<svg version="1.1" xmlns="http://www.w3.org/2000/svg" xmlns:xlink="http://www.w3.org/1999/xlink" width="2048.00" height="2048.00" viewBox="0 0 2048.0 2048.0">
  <defs>
    <!-- Vibrant gradient for visibility on both light and dark backgrounds -->
    <linearGradient id="ghostGrad" x1="0%" y1="0%" x2="100%" y2="100%">
      <stop offset="0%" stop-color="#9146FF"/>
      <stop offset="100%" stop-color="#6C2BD9"/>
    </linearGradient>
    <!-- Subtle glow/shadow filter for depth -->
    <filter id="ghostGlow" x="-20%" y="-20%" width="140%" height="140%">
      <feDropShadow dx="0" dy="0" stdDeviation="25" flood-color="#9146FF" flood-opacity="0.4"/>
    </filter>
  </defs>
  <g id="document" transform="matrix(1,0,0,1,1024.0,1024.0)">
    <!-- Ghost body with gradient fill -->
    <path d="M-735.015,18.2416 C-735.015,424.846 -406.604,753.257 6.83586e-05,753.257 C403.477,753.257 731.888,424.846 735.016,21.3693 C731.888,121.457 650.567,199.65 550.48,199.65 C450.393,199.65 365.944,118.329 365.944,15.1139 C365.944,-422.768 365.944,225.721 365.944,-202.777 C365.944,-506.167 118.854,-753.257 -184.536,-753.257 C-487.925,-753.257 -735.015,-506.167 -735.015,-202.777 L-735.015,18.2416 Z" fill="url(#ghostGrad)" fill-opacity="1.00" filter="url(#ghostGlow)"/>
    <!-- Eyes with white fill for contrast on the colored body -->
    <ellipse cx="-460" cy="-104" rx="117" ry="199" fill="#FFFFFF" fill-opacity="0.95"/>
    <ellipse cx="-117" cy="-104" rx="117" ry="199" fill="#FFFFFF" fill-opacity="0.95"/>
    <!-- Dark pupils for expression -->
    <ellipse cx="-460" cy="-60" rx="60" ry="90" fill="#1A1025" fill-opacity="0.9"/>
    <ellipse cx="-117" cy="-60" rx="60" ry="90" fill="#1A1025" fill-opacity="0.9"/>
    <!-- Tiny highlight dots on pupils for liveliness -->
    <circle cx="-440" cy="-100" r="22" fill="#FFFFFF" fill-opacity="0.8"/>
    <circle cx="-97" cy="-100" r="22" fill="#FFFFFF" fill-opacity="0.8"/>
  </g>
</svg>
